<?xml version="1.0" encoding="UTF-8" standalone="no"?>
<!-- Created with Inkscape (http://www.inkscape.org/) -->

<svg
   width="120"
   height="120"
   viewBox="0 0 120 120"
   version="1.1"
   id="svg1"
   xml:space="preserve"
   xmlns="http://www.w3.org/2000/svg"
   xmlns:svg="http://www.w3.org/2000/svg"><defs
     id="defs1" /><g
     id="layer1"><rect
       style="fill:#1a1a1a"
       id="rect1"
       width="118.94604"
       height="118.79549"
       x="0.60225844"
       y="0.90338773"
       rx="5" /><path
       style="fill:#b3b3b3;stroke-width:0.125803"
       d="m 43.223103,101.45389 c -3.975436,-6.077276 -3.622983,-5.481056 -3.373141,-5.70649 0.291742,-0.263247 2.923124,-1.902419 2.956787,-1.841875 0.01477,0.02622 0.25247,0.699418 0.528828,1.495862 0.276388,0.796444 0.678243,1.913518 0.893329,2.482398 l 0.391076,1.034356 0.49797,-1.707733 c 0.557737,-1.912853 1.004268,-2.786066 2.02014,-3.950571 l 0.690408,-0.791422 -0.248926,-0.70562 c -0.137012,-0.388083 -0.285246,-0.752597 -0.329657,-0.810003 -0.112504,-0.145586 -2.023889,0.63383 -3.383327,1.379668 -2.408175,1.321218 -4.534589,3.002394 -6.840329,5.408111 -0.835187,0.871407 -0.848918,0.87967 -0.464161,0.279275 0.218217,-0.340278 0.849066,-1.179092 1.402107,-1.86398 l 1.005537,-1.245251 -1.314111,-1.995683 c -0.722771,-1.097623 -1.314967,-2.036862 -1.316001,-2.087205 -0.0029,-0.170305 4.33406,-1.755203 4.839442,-1.768248 0.04341,-0.0011 0.297354,0.676022 0.564322,1.504769 l 0.48539,1.506797 1.042271,-0.635981 c 0.573209,-0.349735 1.610312,-0.89718 2.304588,-1.216442 0.801938,-0.368768 1.254937,-0.64865 1.242063,-0.767389 -0.01181,-0.102804 -0.08209,-0.580925 -0.157684,-1.062527 l -0.137307,-0.875599 -1.16198,0.08977 c -3.887232,0.300368 -6.568696,1.190181 -10.303827,3.419077 -0.925456,0.552253 -1.663287,0.96648 -1.639664,0.920513 0.02363,-0.04563 0.535501,-0.50317 1.13753,-1.015963 0.601999,-0.51286 1.094536,-0.955953 1.094536,-0.984734 0,-0.02895 -0.813335,-1.306553 -1.807416,-2.839536 -0.99408,-1.532974 -1.799295,-2.821757 -1.789402,-2.86395 0.0089,-0.04229 0.592106,-3.241801 1.293795,-7.110233 0.701659,-3.868378 1.49078,-8.18893 1.753585,-9.601178 l 0.477891,-2.567736 0.833592,-0.811112 c 0.458491,-0.446128 0.836043,-0.852511 0.839085,-0.903137 0.0059,-0.0885 -0.323397,-0.618239 -2.156503,-3.475339 l -0.842275,-1.312788 0.371411,-2.689256 0.371382,-2.689252 -0.80743,-1.559379 -0.807401,-1.559388 -0.415319,-4.413172 c -0.228256,-2.427255 -0.55245,-5.79931 -0.720084,-7.493471 l -0.304795,-3.080294 -0.641065,-0.671428 c -1.765987,-1.849679 -5.192071,-4.518255 -8.421585,-6.559556 -1.022486,-0.64629 -1.75577,-1.143058 -1.629535,-1.103917 0.126087,0.03897 0.875021,0.264354 1.663965,0.500502 1.694381,0.507125 4.835397,1.745877 5.905601,2.329038 0.416206,0.226845 0.726935,0.35441 0.690527,0.283561 -0.119887,-0.233088 -2.382072,-2.410164 -3.713457,-3.573789 -2.958323,-2.585487 -6.089269,-4.836291 -10.112362,-7.269649 -1.546265,-0.935359 -2.773562,-1.700894 -2.727202,-1.701245 0.220283,-0.0022 3.039083,0.749223 4.16176,1.10864 5.048267,1.6162 9.686648,4.165002 13.631461,7.49056 0.680723,0.573894 1.200663,0.968213 1.155396,0.876309 -0.576783,-1.171325 -3.29049,-4.961392 -4.785346,-6.683414 -0.543267,-0.625776 -0.958025,-1.137777 -0.921764,-1.137777 0.126973,0 2.175903,1.563252 3.141901,2.397225 3.716056,3.208276 6.767894,7.144331 8.996181,11.602607 0.653853,1.308189 0.851752,1.583398 1.807682,2.513976 4.004226,3.897944 7.895268,8.710243 10.768903,13.318634 0.721944,1.157746 0.881576,1.342364 1.102951,1.275605 0.708125,-0.213615 7.28308,-1.456482 7.706255,-1.456733 0.427988,-2.74e-4 7.057185,1.243659 7.76407,1.456871 0.235934,0.07118 0.406344,-0.1344 1.400306,-1.687943 2.994553,-4.680297 6.666493,-9.187202 10.519503,-12.911464 0.870826,-0.841735 1.177038,-1.240604 1.576442,-2.05352 2.721149,-5.538309 6.389634,-10.012802 11.169014,-13.622992 0.62114,-0.469169 1.152708,-0.824999 1.181263,-0.790675 0.02951,0.03395 -0.273139,0.405668 -0.670325,0.825226 -1.16624,1.231755 -3.89335,4.957356 -4.910699,6.708755 -0.314391,0.541187 -0.287609,0.525101 1.036837,-0.622092 3.4798,-3.014196 8.268128,-5.707287 12.992544,-7.307332 1.26565,-0.428653 4.66871,-1.326926 4.81101,-1.269929 0.0585,0.02403 -0.34788,0.286008 -0.90358,0.58331 -1.22671,0.656342 -4.67491,2.813579 -6.337212,3.964658 -2.757792,1.909627 -6.969017,5.45458 -8.856895,7.455589 l -0.619864,0.657027 0.975418,-0.494381 c 1.452277,-0.736065 3.734988,-1.635963 5.737882,-2.262024 0.978278,-0.305821 1.827557,-0.556268 1.887228,-0.556712 0.05968,-4.17e-4 -0.585849,0.425036 -1.434437,0.945405 -1.961322,1.202588 -3.490553,2.260882 -5.157854,3.569474 -1.487382,1.167365 -3.720038,3.157664 -4.087818,3.64403 -0.215853,0.285619 -0.291151,0.835821 -0.664658,4.873057 -0.231505,2.50311 -0.550945,5.877792 -0.709513,7.499313 l -0.288495,2.948218 -0.798128,1.505171 -0.798129,1.505164 0.345337,2.463366 c 0.189869,1.354851 0.345367,2.588549 0.345367,2.741542 0,0.15299 -0.531545,1.105409 -1.181233,2.116471 -0.649658,1.011057 -1.304544,2.049863 -1.455287,2.308452 l -0.274025,0.47017 0.827096,0.908959 0.827125,0.908946 0.618181,3.378845 c 0.339992,1.858361 1.117185,6.132142 1.72704,9.497301 0.609853,3.365156 1.132066,6.191184 1.160443,6.280071 0.02953,0.08877 -0.7792,1.424526 -1.79463,2.968115 -1.015458,1.543577 -1.804256,2.850448 -1.752935,2.904151 0.05168,0.05399 0.491238,0.423419 0.977603,0.821613 1.337114,1.094646 1.308146,1.221633 -0.08622,0.378787 -3.773873,-2.281041 -6.301018,-3.187985 -9.863732,-3.53989 -2.160135,-0.213395 -1.940087,-0.307881 -2.109788,0.905918 -0.08032,0.575503 -0.129335,1.061654 -0.10837,1.080402 0.02067,0.01906 0.528414,0.243611 1.128021,0.499837 0.599637,0.256178 1.623424,0.786858 2.275119,1.179333 1.005508,0.605564 1.194905,0.679433 1.250832,0.488036 0.150596,-0.514811 0.867077,-2.71163 0.89891,-2.755687 0.07412,-0.102692 1.791765,0.438226 3.298993,1.038952 1.114497,0.444234 1.567289,0.684834 1.526864,0.811453 -0.0313,0.09902 -0.609293,1.027136 -1.283755,2.062569 l -1.226294,1.88266 0.628635,0.780735 c 0.717397,0.890998 2.04078,2.748965 2.04078,2.865179 0,0.04286 -0.342324,-0.299366 -0.760716,-0.760088 -2.492035,-2.74422 -5.954293,-5.237432 -8.940962,-6.438484 -0.671983,-0.270265 -1.237189,-0.471343 -1.256029,-0.446803 -0.01772,0.02456 -0.168017,0.37996 -0.331694,0.789988 l -0.297471,0.745455 0.831939,0.983731 c 0.938418,1.109604 1.48452,2.227533 2.015178,4.125318 0.185735,0.664567 0.358891,1.23351 0.384433,1.264321 0.02658,0.03066 0.45412,-1.058916 0.95212,-2.421594 0.498029,-1.36267 0.931008,-2.477605 0.962159,-2.477605 0.152663,0 2.998394,1.964412 2.998394,2.069797 0,0.06695 -0.602708,1.04048 -1.339389,2.163424 -0.736649,1.122977 -2.061155,3.144442 -2.94338,4.492172 -0.882196,1.34773 -1.6236,2.42686 -1.647519,2.39808 -0.02363,-0.0289 -0.301014,-1.22454 -0.615788,-2.65727 -0.982977,-4.474569 -1.450741,-5.900254 -2.236024,-6.814949 l -0.388302,-0.452301 -0.774741,0.416127 -0.774712,0.416135 -1.15256,2.587758 c -0.63389,1.42327 -1.255792,2.66706 -1.382056,2.764 -0.126087,0.097 -1.70634,0.77307 -3.511363,1.50258 l -3.281779,1.32631 -3.42387,-1.38017 c -1.88313,-0.7591 -3.473687,-1.44003 -3.534576,-1.51319 -0.06082,-0.0731 -0.610976,-1.268813 -1.222424,-2.65697 l -1.111722,-2.523967 -0.756257,-0.470674 c -0.733254,-0.45642 -0.765293,-0.463653 -1.052635,-0.237364 -0.805274,0.634089 -1.510713,2.720309 -2.489497,7.361985 -0.275797,1.30826 -0.527381,2.37767 -0.558947,2.37646 -0.0313,-7.4e-4 -1.116003,-1.62053 -2.409917,-3.59849 z m 19.258903,-1.3686 c 1.360855,-0.53378 2.546162,-1.042164 2.634039,-1.129826 0.176581,-0.176124 0.982977,-2.035873 0.917099,-2.115066 -0.02363,-0.02781 -0.311261,0.03565 -0.641155,0.140425 -0.593967,0.188341 -0.609293,0.185164 -1.601246,-0.331649 -0.550826,-0.287015 -1.680621,-0.814476 -2.510639,-1.172199 l -1.509148,-0.650402 -1.187669,0.50924 c -0.653203,0.280114 -1.755711,0.787547 -2.449988,1.127706 -1.286,0.630049 -1.551078,0.669534 -2.457104,0.36593 -0.264575,-0.08861 -0.254241,-0.04231 0.234162,1.064683 l 0.510697,1.157399 2.520207,0.991329 c 1.386102,0.54518 2.643163,0.99619 2.793434,1.00214 0.1503,0.005 1.386663,-0.42588 2.747518,-0.95967 z m -6.7099,-5.774072 c 0.703577,-0.372055 1.639368,-0.857891 2.079491,-1.07968 0.876675,-0.441725 0.946628,-0.565901 0.967032,-1.715729 0.01181,-0.630142 -0.0059,-0.663957 -0.791838,-1.502619 -0.441807,-0.471899 -0.803325,-0.917569 -0.803325,-0.990387 0,-0.07281 0.129039,-0.316788 0.286722,-0.542134 0.454593,-0.649265 0.320031,-1.380613 -0.352011,-1.913008 -0.319676,-0.253278 -0.966352,-0.361978 -1.111958,-0.186934 -0.03721,0.04452 0.0059,0.330976 0.09508,0.63601 l 0.162703,0.554544 -0.315041,-0.243335 c -1.156222,-0.893263 -1.604672,-1.656031 -1.920747,-3.267173 -0.255717,-1.304256 -0.219692,-1.654915 0.372061,-3.593786 l 0.545068,-1.78628 0.07796,1.295367 c 0.07648,1.272446 0.405191,3.846808 0.506622,3.968613 0.02953,0.03395 0.284361,-0.07374 0.568602,-0.239827 0.284361,-0.166025 0.637671,-0.301815 0.785196,-0.301815 0.147642,0 0.818208,0.248223 1.490337,0.551594 0.672129,0.303428 1.295183,0.551649 1.384566,0.551649 0.08947,0 0.692535,-0.248223 1.340332,-0.551649 1.338414,-0.626845 1.565902,-0.653944 2.269451,-0.270375 0.277568,0.151387 0.532311,0.242147 0.566003,0.201683 0.130222,-0.156607 0.468058,-3.089654 0.476474,-4.137636 0.01181,-1.310373 0.03662,-1.274265 0.738038,1.017467 0.495313,1.618528 0.508983,1.705026 0.399314,2.523535 -0.128153,0.956598 -0.466315,2.193806 -0.733519,2.683857 -0.184849,0.339105 -1.423692,1.566897 -1.581138,1.567052 -0.04872,5.5e-5 -0.0059,-0.191685 0.09449,-0.42609 0.246859,-0.573707 0.147053,-0.81502 -0.337216,-0.81502 -0.445941,0 -1.056947,0.527271 -1.224404,1.056582 -0.119885,0.378564 0.03071,0.944448 0.365033,1.373535 l 0.22796,0.292466 -0.879803,0.964711 -0.879805,0.964724 0.08238,0.852112 c 0.06319,0.655563 0.13908,0.895257 0.328623,1.039105 0.135537,0.10281 1.118041,0.635008 2.183433,1.182585 l 1.937106,0.995599 1.125038,-0.44285 c 1.639665,-0.645363 1.705809,-0.741399 0.69909,-1.01462 -0.911459,-0.247395 -2.459643,-0.978717 -2.647416,-1.250609 -0.09685,-0.140089 0.02067,-0.149978 0.594559,-0.04948 1.003618,0.175865 2.643666,0.03672 3.536847,-0.298368 0.74601,-0.280496 1.486291,-0.777004 1.558784,-1.045512 0.02363,-0.08767 -0.621606,-0.142688 -1.769884,-0.151001 -1.150168,-0.0088 -2.078311,-0.08761 -2.553072,-0.218118 l -0.745922,-0.204971 0.860699,-0.178427 c 2.067209,-0.428764 4.58151,-1.515082 5.099884,-2.203443 0.213492,-0.283448 0.212016,-0.28484 -0.250107,-0.28484 -0.400881,0 -1.166882,0.08631 -4.33344,0.488482 -0.528827,0.06712 -0.386529,-0.04173 1.813972,-1.384657 2.203778,-1.345246 2.381599,-1.481064 2.30822,-1.763244 -0.04399,-0.16818 -0.451817,-1.59349 -0.906882,-3.167398 -0.455095,-1.573915 -0.800845,-2.861665 -0.768423,-2.861665 0.06998,0 2.642337,1.683889 3.025175,1.980395 0.255127,0.197679 0.351863,0.132743 2.446178,-1.64665 2.064463,-1.754034 2.190845,-1.8873 2.377289,-2.506732 0.10837,-0.359861 0.697376,-2.749314 1.309061,-5.309987 0.611714,-2.56066 1.123593,-4.639677 1.137441,-4.620024 0.01476,0.01961 1.141842,2.69554 2.506594,5.946423 1.364753,3.250866 2.481347,5.84428 2.481347,5.763144 0,-0.08104 -0.09981,-0.661914 -0.22176,-1.290634 -0.121657,-0.628721 -0.586881,-3.160068 -1.033382,-5.625239 -0.446414,-2.465056 -0.835778,-4.609677 -0.865189,-4.765704 -0.05581,-0.297476 -0.376489,-0.612502 -6.027523,-5.924647 -1.925028,-1.809626 -4.429614,-4.165494 -5.565727,-5.235253 -3.043305,-2.865616 -2.970606,-2.803166 -2.888516,-2.481961 0.09951,0.389026 0.766444,4.799277 0.732131,4.840539 -0.01476,0.01906 -0.748254,-1.272112 -1.627763,-2.868916 -0.879538,-1.596816 -1.704745,-2.954263 -1.833815,-3.016556 -0.12904,-0.06228 -1.086711,-0.273882 -2.128125,-0.470171 -1.041444,-0.196298 -1.988958,-0.382179 -2.105654,-0.413181 -0.183963,-0.04897 -0.202566,0.0055 -0.139376,0.410399 0.04016,0.256676 0.479338,1.80122 0.976098,3.432313 l 0.90322,2.965619 -0.562667,2.523008 c -0.309519,1.387653 -0.865188,3.88568 -1.234945,5.551177 -0.638703,2.877229 -0.678479,3.004377 -0.797803,2.551354 -0.24184,-0.91793 -2.317788,-10.446106 -2.316518,-10.632227 0.0011,-0.103356 0.2129,-0.870595 0.4716,-1.704969 0.62831,-2.026566 1.490486,-5.064728 1.450799,-5.112401 -0.0313,-0.03728 -3.919389,0.699672 -4.406346,0.835174 -0.165654,0.04621 -0.769396,1.025913 -1.869425,3.034636 -0.893505,1.631579 -1.64049,2.966482 -1.65992,2.966482 -0.02067,0 0.136422,-1.101562 0.346784,-2.447919 0.210243,-1.346366 0.370199,-2.491122 0.355583,-2.543911 -0.01477,-0.05287 -1.583914,1.374594 -3.487327,3.171966 -1.903443,1.797365 -5.136144,4.848304 -7.183805,6.779856 l -3.723055,3.5119 -0.428371,2.349339 c -0.235638,1.292142 -0.733785,4.019968 -1.107086,6.061838 -0.37333,2.041859 -0.665959,3.725698 -0.650337,3.741847 0.01476,0.01547 1.138503,-2.63192 2.495312,-5.884592 1.356839,-3.252678 2.492953,-5.913922 2.524666,-5.913879 0.03189,5.6e-5 0.598752,2.280767 1.259987,5.068255 0.97028,4.09027 1.258124,5.135499 1.491843,5.417094 0.379383,0.457149 4.076364,3.581564 4.237914,3.581564 0.06851,0 0.817204,-0.465496 1.663582,-1.034336 0.846408,-0.568909 1.575056,-1.034336 1.619289,-1.034336 0.04459,0 0.04399,0.108575 0,0.241319 -0.04459,0.132687 -0.461384,1.55987 -0.926666,3.171396 l -0.845876,2.930065 2.354551,1.395809 c 1.295006,0.767695 2.334737,1.419645 2.310495,1.448768 -0.02363,0.02949 -0.969248,-0.07068 -2.100015,-0.221791 -2.247214,-0.300313 -3.031405,-0.341053 -3.031405,-0.157601 0,0.19881 0.811976,0.778058 1.663965,1.186957 0.735823,0.353187 2.783572,1.013039 3.901731,1.257334 l 0.459052,0.100291 -0.631174,0.195247 c -0.396155,0.122552 -1.326306,0.204307 -2.498178,0.219444 -2.135892,0.02784 -2.291862,0.14081 -1.139124,0.826609 1.100353,0.654565 3.043807,0.941263 4.4693,0.659284 0.299803,-0.05935 0.545068,-0.06477 0.545068,-0.01217 0,0.236647 -2.199674,1.258818 -3.1357,1.457149 -0.241249,0.05118 -0.396304,0.13934 -0.344275,0.195969 0.09981,0.10857 1.997315,0.912992 2.389779,1.013116 0.126382,0.03224 0.247745,0.06576 0.269892,0.07455 0.02363,0.0088 0.616114,-0.288353 1.319691,-0.660439 z M 51.834231,80.776892 c 0.0024,-0.110591 0.151186,-0.935072 0.330662,-1.832234 l 0.326349,-1.631228 -0.399433,-0.989097 c -0.219692,-0.543969 -0.416029,-1.010003 -0.436256,-1.035527 -0.02067,-0.02569 -0.613102,-0.136859 -1.317447,-0.247395 -1.538292,-0.241375 -2.299421,-0.563159 -3.181706,-1.345132 -0.854764,-0.757625 -1.378011,-1.483428 -1.6963,-2.353104 -0.255127,-0.696913 -0.630405,-2.317509 -0.630405,-2.721862 0,-0.117938 -0.645968,-0.821953 -1.435474,-1.564478 -0.789507,-0.742516 -1.422126,-1.362181 -1.405797,-1.377041 0.01477,-0.01492 1.401427,0.139759 3.077942,0.343558 l 3.048237,0.370548 1.828942,1.246842 c 1.005922,0.685779 1.842023,1.207524 1.857998,1.159437 0.01477,-0.04787 -0.306802,-1.071574 -0.717219,-2.274433 -0.410449,-1.202859 -0.746307,-2.250887 -0.746307,-2.328962 0,-0.07803 0.192232,-0.427592 0.427427,-0.776738 C 51.58188,62.207488 54.125,58.709817 54.125,58.7995 c 0,0.04952 -0.183963,1.636755 -0.409,3.527001 -0.225008,1.890249 -0.392818,3.521645 -0.372946,3.625328 0.02067,0.103687 0.746955,1.187798 1.615833,2.40914 l 1.57981,2.220629 -0.196955,2.199936 c -0.108371,1.209968 -0.21113,2.182617 -0.228847,2.161457 -0.01772,-0.02127 -0.163884,-0.958988 -0.324962,-2.084085 -0.161226,-1.125083 -0.333851,-2.133423 -0.383842,-2.240738 -0.09626,-0.206546 -1.857408,-1.833097 -1.985296,-1.83352 -0.04164,-1.35e-4 0.02953,0.32558 0.15473,0.723787 0.555816,1.752234 1.325715,5.021815 1.64799,6.999026 0.05286,0.323632 0.03603,0.316172 -0.271072,-0.121226 l -0.327206,-0.465996 -0.297648,0.603911 c -0.588506,1.19402 -2.495581,4.449435 -2.491328,4.252723 z m -0.816495,-7.644501 c 0.517046,-0.219222 1.45508,-0.972057 1.539089,-1.235199 0.02953,-0.09087 -0.355199,-0.435498 -0.877353,-0.786765 l -0.929029,-0.624933 -0.447328,0.680111 c -0.245974,0.374056 -0.490057,0.627433 -0.542294,0.563064 -0.190754,-0.234911 -0.659491,-1.508983 -0.728735,-1.980094 -0.06674,-0.453696 -0.136718,-0.520317 -1.120167,-1.066288 l -1.049034,-0.582365 0.06319,1.108233 c 0.07855,1.375401 0.454888,2.372182 1.189205,3.148996 0.862796,0.91271 1.915314,1.193815 2.902484,0.77524 z m 15.709832,6.097303 C 66.188759,78.301356 65.555342,77.175256 65.319999,76.727252 L 64.8921,75.912674 64.619551,76.313552 c -0.205814,0.302539 -0.27373,0.343113 -0.276683,0.165474 -0.0059,-0.390474 0.748697,-3.776765 1.293678,-5.798263 0.281112,-1.042957 0.488462,-1.896295 0.460616,-1.896295 -0.03898,0 -0.858897,0.722866 -1.971092,1.738365 -0.02363,0.02071 -0.185145,1.018402 -0.361962,2.217867 -0.176877,1.199464 -0.331133,2.149807 -0.343123,2.111896 -0.0118,-0.03839 -0.108665,-1.011624 -0.215263,-2.16377 l -0.193708,-2.094841 1.581375,-2.249296 c 1.382588,-1.966535 1.580931,-2.309979 1.57786,-2.732092 -0.0024,-0.265542 -0.17658,-1.910196 -0.388006,-3.654783 -0.211424,-1.744585 -0.375485,-3.18499 -0.364471,-3.200907 0.0688,-0.09941 3.783056,5.281125 3.769886,5.460966 -0.0089,0.122275 -0.35576,1.209317 -0.770667,2.415603 -0.414965,1.20627 -0.739662,2.211034 -0.72156,2.232782 0.01772,0.02182 0.880867,-0.529387 1.917263,-1.224704 l 1.884396,-1.26425 2.961423,-0.353742 c 1.628797,-0.194558 2.961451,-0.311275 2.961451,-0.25941 0,0.05176 -0.596123,0.64402 -1.324711,1.315878 -0.92209,0.850324 -1.341987,1.326369 -1.381555,1.566429 -0.487753,2.958292 -1.064712,4.107485 -2.699888,5.377607 -0.729503,0.566656 -1.618581,0.872523 -3.028481,1.041918 -0.441867,0.05341 -0.884648,0.147272 -0.98407,0.209252 -0.09951,0.06195 -0.349974,0.554097 -0.556851,1.093419 l -0.376076,0.980606 0.345455,1.751202 c 0.189869,0.963173 0.333585,1.766038 0.319086,1.784151 -0.01476,0.01851 -0.46723,-0.72661 -1.006069,-1.654943 z m 3.983259,-6.277912 c 0.568397,-0.352349 1.218764,-1.164135 1.527899,-1.907187 0.307451,-0.738996 0.549498,-2.304097 0.410063,-2.651556 -0.09922,-0.247616 -0.159454,-0.230519 -1.075401,0.305934 -0.940516,0.550757 -0.974208,0.587154 -1.100738,1.188761 -0.142033,0.67548 -0.556555,1.725069 -0.733047,1.856157 -0.06083,0.04508 -0.280817,-0.196518 -0.489378,-0.5369 -0.208472,-0.340442 -0.420073,-0.621358 -0.47042,-0.624313 -0.147938,-0.0088 -1.802012,1.113405 -1.802012,1.222489 0,0.218504 0.665841,0.843253 1.262318,1.18435 0.52245,0.298753 0.750381,0.350958 1.323088,0.302871 0.383783,-0.03228 0.894804,-0.183896 1.14757,-0.340551 z m -13.620241,4.413789 c 0.286428,-0.483582 2.512175,-3.06468 2.642603,-3.06468 0.245382,0 2.865189,3.036091 2.879363,3.336944 0.0024,0.05287 -0.421521,-0.184116 -0.942229,-0.526551 -0.520707,-0.342386 -1.168417,-0.746523 -1.439311,-0.898032 l -0.492566,-0.275485 -1.440789,0.911139 c -1.310893,0.828987 -1.419706,0.875567 -1.207041,0.516699 z m -15.384308,9.70026 c 0.899382,-0.279607 2.623703,-0.59064 3.892341,-0.702083 l 1.055795,-0.09272 0.130516,-0.755354 c 0.07175,-0.415462 0.113095,-0.772899 0.09183,-0.794338 -0.02067,-0.02127 -1.303893,-1.236341 -2.850247,-2.699786 -1.546383,-1.46343 -2.842158,-2.716519 -2.879512,-2.784622 -0.03721,-0.06811 -0.239772,-1.020391 -0.449898,-2.116196 -0.209947,-1.095798 -0.424827,-1.992356 -0.477151,-1.992356 -0.05226,0 -0.09538,0.05609 -0.09538,0.124541 0,0.06853 -1.060874,2.248106 -2.357473,4.843478 -1.296631,2.595384 -2.342357,4.771549 -2.323842,4.835938 0.05847,0.202981 1.177541,1.902241 1.25839,1.910557 0.04222,0.0044 0.549025,-1.093648 1.125749,-2.440013 0.576693,-1.346364 1.091051,-2.49957 1.142933,-2.562682 0.05168,-0.06306 0.222055,0.340274 0.378321,0.896425 0.927995,3.30438 1.387578,4.677895 1.541481,4.60691 0.088,-0.04063 0.455125,-0.1655 0.816053,-0.277771 z m 37.934675,-2.435353 c 0.419897,-1.410834 0.763492,-2.636517 0.763492,-2.723749 0,-0.454031 0.279931,0.05867 1.211942,2.220374 0.564173,1.308438 1.042506,2.456562 1.062911,2.551362 0.06762,0.313837 0.207586,0.18188 0.863623,-0.814685 l 0.649865,-0.987078 -0.215853,-0.426538 c -0.843456,-1.665789 -4.485128,-8.920979 -4.582986,-9.130509 -0.151187,-0.323633 -0.131992,-0.388858 -0.594883,2.034741 l -0.359186,1.88128 -2.922091,2.792123 c -2.092484,1.999393 -2.906794,2.855286 -2.868112,3.014585 0.02953,0.122386 0.0874,0.449858 0.12845,0.727746 l 0.07441,0.505289 1.107972,0.09134 c 1.35926,0.112028 2.909393,0.396539 3.97691,0.729828 0.441837,0.137908 0.834124,0.216654 0.871803,0.17492 0.0378,-0.04173 0.412072,-1.230195 0.831997,-2.641038 z m -40.847436,-24.8448 c 0.09892,-0.322351 0.403863,-1.320467 0.677947,-2.218005 l 0.498324,-1.631885 -1.301325,-4.629572 c -0.715743,-2.54627 -1.284995,-4.649217 -1.265034,-4.673213 0.02067,-0.02403 0.369314,0.07808 0.776307,0.22679 0.407022,0.148708 0.778905,0.270928 0.826476,0.271425 0.04755,5.44e-4 -0.589332,-1.628041 -1.415365,-3.619125 l -1.501913,-3.620188 0.576606,0.689558 c 0.860196,1.028814 7.351321,9.22935 7.32566,9.254893 -0.01181,0.01215 -0.874194,-0.127219 -1.915608,-0.309607 -1.041445,-0.182376 -1.96188,-0.314838 -2.045476,-0.294245 -0.08357,0.02071 0.963252,1.209132 2.326292,2.641243 1.363071,1.432124 2.501368,2.648706 2.529568,2.703533 0.02953,0.05455 -0.708805,0.07124 -1.637774,0.03674 l -1.689035,-0.063 1.090196,1.354696 c 0.599636,0.745083 1.097075,1.375257 1.105491,1.400389 0.03071,0.09084 3.484787,-3.287273 3.484787,-3.407868 0,-0.06811 -0.352808,-0.951074 -0.783954,-1.962186 -1.980837,-4.64506 -4.518524,-8.699632 -8.184413,-13.076431 -1.208309,-1.442632 -3.870607,-4.277036 -4.017335,-4.277036 -0.02658,0 0.291742,3.304714 0.707652,7.343804 l 0.756376,7.3438 1.124832,2.115453 1.124863,2.115451 -0.28377,0.36693 c -0.155912,0.201849 -0.368931,0.528664 -0.473049,0.726351 -0.183667,0.348731 -0.528886,2.176458 -0.528886,2.800705 0,0.284451 1.674448,2.969122 1.855311,2.974643 0.04222,0.0011 0.157387,-0.261398 0.256308,-0.583796 z m 43.12542,-0.68956 c 0.468058,-0.701617 0.881724,-1.337738 0.919255,-1.413591 0.0936,-0.189393 -0.195775,-2.118434 -0.410595,-2.736618 -0.09656,-0.277327 -0.310641,-0.717434 -0.476089,-0.978071 -0.354432,-0.558422 -0.427339,-0.329309 0.939953,-2.952042 l 0.959177,-1.839819 0.688046,-6.917578 c 0.378439,-3.804659 0.717398,-7.088236 0.753274,-7.296829 0.03603,-0.208534 0.02953,-0.379288 -0.01477,-0.379288 -0.156796,0 -2.427456,2.421069 -3.936515,4.19703 -3.654814,4.301252 -6.161997,8.292436 -8.24524,13.125512 -0.461148,1.069951 -0.838494,1.982272 -0.838494,2.027373 0,0.04508 0.580915,0.623094 1.29099,1.284421 0.710074,0.661328 1.499344,1.405593 1.75391,1.653919 l 0.462891,0.451525 1.078237,-1.387246 1.078206,-1.387261 -1.684547,0.05231 c -0.92649,0.02895 -1.684548,0.04508 -1.684548,0.03674 0,-0.0088 1.145888,-1.219522 2.546399,-2.6909 1.400511,-1.471364 2.472045,-2.692174 2.381186,-2.712898 -0.09095,-0.02071 -1.005774,0.108466 -2.033222,0.287232 -1.027417,0.178705 -1.853657,0.276938 -1.836116,0.218284 0.07796,-0.260515 7.780607,-9.860027 7.772811,-9.687013 -0.0024,0.06405 -0.663419,1.683477 -1.467867,3.598726 -0.804417,1.91525 -1.434646,3.481805 -1.400511,3.481222 0.03425,-5.58e-4 0.395093,-0.122716 0.802056,-0.271424 0.406963,-0.148708 0.762487,-0.243335 0.789978,-0.210329 0.02658,0.03285 -0.532371,2.133962 -1.244158,4.668677 l -1.294208,4.60856 0.669974,2.222548 c 0.368458,1.222397 0.70591,2.222552 0.749849,2.222552 0.044,0 0.46292,-0.574056 0.930948,-1.275689 z"
       id="path1" /></g></svg>
