<?xml version="1.0" encoding="UTF-8" standalone="no"?>
<!-- Created with Inkscape (http://www.inkscape.org/) -->

<svg
   version="1.1"
   id="svg1"
   width="1408"
   height="768"
   viewBox="0 0 1408 768"
   xml:space="preserve"
   xmlns="http://www.w3.org/2000/svg"
   xmlns:svg="http://www.w3.org/2000/svg"><defs
     id="defs1" /><g
     id="g1"><path
       style="fill:#ffffff"
       d="m 571.92339,664.96335 c -34.6422,-44.06644 -31.5711,-39.74317 -29.3938,-41.37783 2.5426,-1.90886 25.4723,-13.79439 25.7656,-13.35545 0.1273,0.19058 2.2011,5.07151 4.6084,10.84651 2.4073,5.775 5.9103,13.875 7.7845,18 l 3.4077,7.5 4.339,-12.38272 c 4.8602,-13.87013 8.7512,-20.20181 17.6037,-28.64565 l 6.0163,-5.73862 -2.1693,-5.1165 c -1.1931,-2.81408 -2.4857,-5.45706 -2.8725,-5.87329 -0.9809,-1.05564 -17.6365,4.59589 -29.4827,10.00394 -20.985,9.58018 -39.5145,21.77042 -59.6069,39.21432 -7.2779,6.31856 -7.3977,6.37852 -4.0446,2.02495 1.9005,-2.46754 7.3985,-8.54961 12.2178,-13.51571 l 8.7623,-9.02928 -11.4512,-14.47072 c -6.2981,-7.9589 -11.4586,-14.76935 -11.4677,-15.13435 -0.031,-1.23491 37.7674,-12.72695 42.1712,-12.82159 0.3783,-0.008 2.5913,4.90184 4.9177,10.91105 l 4.2298,10.92582 9.0824,-4.61147 c 4.9952,-2.53631 14.0323,-6.50554 20.0823,-8.82051 6.9882,-2.67394 10.9356,-4.70332 10.8235,-5.56435 -0.097,-0.74542 -0.7155,-4.21236 -1.3743,-7.70429 l -1.1978,-6.34898 -10.1257,0.65112 c -33.8735,2.17817 -57.24,8.63 -89.7881,24.79178 -8.0644,4.00434 -14.4939,7.00796 -14.288,6.67469 0.206,-0.33326 4.6666,-3.64835 9.9125,-7.36686 5.2458,-3.71852 9.5379,-6.93161 9.5379,-7.14022 0,-0.2086 -7.0875,-9.47389 -15.75,-20.58954 -8.6625,-11.11564 -15.6794,-20.46063 -15.593,-20.76664 0.086,-0.30601 5.1597,-23.50638 11.2741,-51.55638 6.1143,-28.05 12.9907,-59.3784 15.2809,-69.61867 l 4.1641,-18.61868 7.2639,-5.88132 c 3.9952,-3.23473 7.2855,-6.18166 7.312,-6.54872 0.046,-0.642 -2.818,-4.4828 -18.7918,-25.19964 l -7.3397,-9.51913 3.2366,-19.49981 3.2366,-19.4998 -7.0359,-11.30711 -7.0359,-11.30712 -3.6189,-32 c -1.9903,-17.6 -4.8139,-42.05084 -6.2747,-54.3352 l -2.6559,-22.33519 -5.5862,-4.86859 c -15.389,-13.41205 -45.2442,-32.76192 -73.3863,-47.56344 -8.9099,-4.68626 -15.2999,-8.28829 -14.1999,-8.00451 1.1,0.28378 7.625,1.91686 14.5,3.62907 14.765,3.67719 42.136,12.65935 51.4617,16.88785 3.627,1.64456 6.3347,2.56971 6.0172,2.05589 -1.0444,-1.68991 -20.7574,-17.47619 -32.3592,-25.91355 -25.779,-18.74747 -53.0622,-35.068037 -88.1197,-52.712407 -13.475,-6.78193 -24.1697,-12.33283 -23.7659,-12.33535 1.9204,-0.012 26.4828,5.43254 36.2659,8.03872 43.991,11.71905 84.4099,30.20047 118.7853,54.314187 5.9319,4.16113 10.4626,7.02048 10.0682,6.3541 -5.0261,-8.49325 -28.6735,-35.975087 -41.6999,-48.461577 -4.7337,-4.5375 -8.3482,-8.25 -8.0323,-8.25 1.1073,0 18.9611,11.33518 27.3787,17.38234 32.382,23.263247 58.9761,51.803647 78.3934,84.130597 5.6977,9.48577 7.4221,11.48128 15.7523,18.22897 34.893,28.26404 68.7996,63.15808 93.8408,96.57357 6.291,8.39488 7.682,9.73355 9.611,9.24941 6.1708,-1.54879 63.4653,-10.5609 67.1527,-10.56275 3.7298,-0.002 61.49674,9.0178 67.65664,10.56383 2.0549,0.51576 3.5408,-0.97458 12.2024,-12.23935 26.0946,-33.93695 58.09223,-66.61654 91.66743,-93.62122 7.5886,-6.10347 10.2568,-8.99567 13.7373,-14.89008 23.7123,-40.15835 55.6796,-72.602987 97.32731,-98.780557 5.41263,-3.40212 10.04483,-5.98204 10.29373,-5.73316 0.2489,0.24888 -2.3797,2.94153 -5.8412,5.98366 -10.16283,8.93149 -33.92684,35.945937 -42.79224,48.645307 -2.7395,3.92429 -2.5058,3.80761 9.0352,-4.51078 30.32311,-21.855997 72.04894,-41.383587 113.21764,-52.985577 11.0291,-3.10818 40.6835,-9.62158 41.9235,-9.20824 0.5116,0.17054 -3.0316,2.07393 -7.8739,4.22976 -10.6894,4.75913 -40.7372,20.40128 -55.2228,28.74778 -24.0315,13.846747 -60.7285,39.551217 -77.17954,54.060577 l -5.4016,4.76408 8.5,-3.58476 c 12.65511,-5.33711 32.54674,-11.86232 50.00004,-16.40191 8.525,-2.21735 15.9255,-4.03378 16.4456,-4.03652 0.5201,-0.003 -5.1049,3.08207 -12.5,6.85513 -17.0909,8.71998 -30.4167,16.39373 -44.94563,25.88233 -12.96101,8.46458 -32.41681,22.89628 -35.62151,26.42295 -1.882,2.07102 -2.5359,6.06053 -5.7917,35.33461 -2.0187,18.15 -4.8009,42.61991 -6.1828,54.37758 l -2.5126,21.37758 -6.955,10.91398 -6.955,10.91399 3.0093,17.86188 c 1.6551,9.82404 3.0093,18.76958 3.0093,19.87899 0,1.10941 -4.632,8.01536 -10.2933,15.34656 -5.6613,7.33119 -11.368,14.86356 -12.6814,16.73858 l -2.3882,3.40915 7.2075,6.59085 7.2074,6.59086 5.3869,24.5 c 2.9629,13.475 9.7351,44.46429 15.0496,68.86509 5.3144,24.4008 9.8649,44.8924 10.1122,45.53689 0.2474,0.64449 -6.79,10.32931 -15.6386,21.52183 -8.8486,11.19251 -15.7224,20.66864 -15.2752,21.05806 0.4472,0.38942 4.2807,3.0703 8.519,5.95751 11.6515,7.93732 11.3992,8.85813 -0.7527,2.74637 -32.8858,-16.53983 -54.9075,-23.11606 -85.9532,-25.66778 -18.82363,-1.54716 -16.90603,-2.23233 -18.38483,6.56888 -0.7012,4.17277 -1.1264,7.69805 -0.945,7.83396 0.1814,0.13591 4.6048,1.76687 9.8298,3.62436 5.22503,1.8575 14.14643,5.70563 19.82533,8.55142 8.7622,4.39081 10.4124,4.92657 10.8998,3.53878 1.3111,-3.7328 7.5558,-19.66207 7.8332,-19.98155 0.6467,-0.74459 15.6134,3.17751 28.7476,7.53349 9.712,3.22097 13.6575,4.96572 13.3052,5.88375 -0.2754,0.71776 -5.3095,7.44788 -11.1867,14.95582 l -10.686,13.65081 5.478,5.66115 c 6.2515,6.46061 17.7836,19.93276 17.7836,20.77543 0,0.3096 -2.9831,-2.17051 -6.629,-5.51137 -21.7157,-19.89847 -51.886,-37.97679 -77.91213,-46.68568 -5.8558,-1.95946 -10.781,-3.41743 -10.945,-3.23993 -0.164,0.17749 -1.4649,2.75514 -2.8908,5.72812 l -2.5925,5.4054 7.2496,7.13295 c 8.1774,8.04581 12.936,16.15189 17.56023,29.91275 1.6193,4.8188 3.127,8.94422 3.3504,9.1676 0.2233,0.22338 3.9569,-7.67816 8.2968,-17.55898 4.3399,-9.88082 8.1128,-17.96513 8.3843,-17.96513 1.3303,0 26.1281,14.24397 26.1281,15.0081 0,0.4853 -5.2521,7.54451 -11.6714,15.68713 -6.4193,8.14263 -17.9612,22.80034 -25.6487,32.57271 -7.6876,9.77237 -14.14813,17.59723 -14.35673,17.3886 -0.2087,-0.20864 -2.6233,-8.87921 -5.366,-19.26794 -8.5656,-32.44522 -12.6418,-42.78284 -19.4849,-49.4154 l -3.3838,-3.27972 -6.751,3.01741 -6.751,3.0174 -10.0433,18.7639 c -5.5238,10.32015 -10.9433,19.33892 -12.0433,20.04172 -1.0999,0.70279 -14.8692,5.60569 -30.59844,10.89531 l -28.5984,9.61751 -29.8358,-10.00762 c -16.4097,-5.50418 -30.2699,-10.44167 -30.8004,-10.97219 -0.5305,-0.53051 -5.3241,-9.2001 -10.6523,-19.26575 l -9.6878,-18.30117 -6.59,-3.41308 c -6.3896,-3.30924 -6.6687,-3.3616 -9.1725,-1.72104 -7.0172,4.59784 -13.1646,19.72499 -21.6936,53.38188 -2.4039,9.48626 -4.5957,17.2406 -4.8707,17.23185 -0.275,-0.009 -9.725,-11.75052 -21,-26.09284 z m 167.823,-9.9236 c 11.85854,-3.87025 22.18744,-7.55685 22.95324,-8.19244 1.5389,-1.27714 8.5656,-14.7622 7.9915,-15.33638 -0.1984,-0.19838 -2.7124,0.25968 -5.5868,1.01791 -5.176,1.36542 -5.3095,1.34241 -13.9535,-2.40476 -4.80014,-2.08086 -14.64514,-5.9056 -21.87794,-8.49943 l -13.1505,-4.71607 -10.3495,3.69243 c -5.6922,2.03083 -15.2995,5.71047 -21.3495,8.17697 -11.2061,4.56856 -13.5161,4.85482 -21.4113,2.65334 -2.3053,-0.64281 -2.2157,-0.30354 2.0389,7.71995 l 4.4502,8.39231 21.9611,7.18817 c 12.0786,3.9535 23.0326,7.22343 24.3422,7.2665 1.3096,0.0431 12.0835,-3.08824 23.9419,-6.9585 z m -58.4704,-41.86798 c 6.131,-2.69765 14.2855,-6.2206 18.1209,-7.82878 7.6394,-3.20316 8.249,-4.10317 8.4268,-12.44077 0.097,-4.56916 -0.058,-4.81438 -6.9003,-10.89559 -3.85,-3.42168 -7,-6.65326 -7,-7.18129 0,-0.52802 1.125,-2.29703 2.5,-3.93113 3.9614,-4.70787 2.7887,-10.01087 -3.0674,-13.87128 -2.7855,-1.8362 -8.4209,-2.62479 -9.6897,-1.35594 -0.3247,0.32473 0.048,2.40003 0.8284,4.61179 l 1.4188,4.02138 -2.745,-1.76457 c -10.0754,-6.47654 -13.9831,-12.00743 -16.7375,-23.68985 -2.2297,-9.45717 -1.9133,-11.99988 3.2424,-26.05855 l 4.75,-12.95241 0.6796,9.39279 c 0.6677,9.22652 3.5312,27.89322 4.4145,28.77649 0.2474,0.24736 2.4769,-0.53514 4.9546,-1.73887 2.4776,-1.20374 5.5567,-2.18861 6.8424,-2.18861 1.2857,0 7.1298,1.8 12.9868,4 5.857,2.2 11.2863,4 12.0651,4 0.7788,0 6.0347,-1.8 11.6799,-4 11.6631,-4.54524 13.6454,-4.74174 19.77604,-1.96027 2.4194,1.0977 4.6389,1.75579 4.9323,1.46242 1.1354,-1.13541 4.0788,-22.4031 4.1523,-30.00215 0.092,-9.50152 0.3201,-9.23964 6.4313,7.37774 4.316,11.73593 4.4353,12.36316 3.4794,18.29817 -1.117,6.93635 -4.0635,15.90733 -6.3918,19.4607 -1.611,2.45876 -12.4064,11.36165 -13.77814,11.36276 -0.4266,3.5e-4 -0.057,-1.38998 0.82244,-3.08963 2.1511,-4.15983 1.281,-5.90974 -2.93864,-5.90974 -3.886,0 -9.2102,3.82313 -10.6695,7.66133 -1.0436,2.74492 0.2669,6.84821 3.1809,9.95946 l 1.9863,2.12079 -7.6666,6.99517 -7.6667,6.99518 0.7171,6.17871 c 0.5517,4.75349 1.2123,6.49147 2.8637,7.53456 1.1807,0.74571 9.7426,4.60444 19.0266,8.57496 l 16.87994,7.21911 9.8038,-3.21095 c 14.2879,-4.67955 14.8645,-5.37589 6.0917,-7.35703 -7.9425,-1.79366 -21.4335,-7.09665 -23.0697,-9.06818 -0.8432,-1.0159 0.1853,-1.08711 5.1812,-0.35875 8.7454,1.27499 23.0368,0.27189 30.8202,-2.16324 6.5008,-2.03382 12.9515,-5.63411 13.5833,-7.58112 0.2062,-0.63542 -5.4167,-1.03455 -15.4229,-1.09477 -10.0226,-0.0603 -18.1104,-0.63525 -22.2474,-1.58149 l -6.5,-1.48672 7.5,-1.29438 c 18.0138,-3.10889 39.9236,-10.98585 44.4407,-15.97718 1.8598,-2.05496 1.8487,-2.06546 -2.1789,-2.06546 -3.4933,0 -10.1684,0.62617 -37.7618,3.5423 -4.6079,0.48697 -3.3682,-0.30044 15.8068,-10.0401 19.2042,-9.75441 20.7535,-10.73927 20.1141,-12.78535 -0.3811,-1.21927 -3.9373,-11.55435 -7.9027,-22.96685 -3.9654,-11.4125 -6.9786,-20.75 -6.696,-20.75 0.6108,0 23.0256,12.20996 26.3617,14.35992 2.2247,1.43373 3.0659,0.96254 21.31613,-11.93994 17.9898,-12.71844 19.0912,-13.68479 20.7157,-18.17628 0.9436,-2.60904 6.077,-19.9353 11.4075,-38.50282 5.3305,-18.56752 9.7908,-33.64252 9.9117,-33.5 0.1208,0.14252 9.9499,19.54541 21.8424,43.11754 11.8925,23.57212 21.6227,42.37705 21.6227,41.78872 0,-0.58833 -0.869,-4.79961 -1.9311,-9.35841 -1.0621,-4.5588 -5.1144,-22.91373 -9.0051,-40.78873 -3.8906,-17.875 -7.2834,-33.4257 -7.5395,-34.55712 -0.4882,-2.15672 -3.2812,-4.4412 -52.5243,-42.95968 -16.77503,-13.1216 -38.60003,-30.20398 -48.50003,-37.96085 -26.5196,-20.77866 -25.8862,-20.32579 -25.1709,-17.99676 0.8663,2.8208 6.679,34.79966 6.3798,35.09885 -0.1371,0.13709 -6.5201,-9.22407 -14.1844,-20.80257 -7.6643,-11.5785 -14.8552,-21.42139 -15.9798,-21.87309 -1.1246,-0.4517 -9.4697,-1.98573 -18.54474,-3.40896 -9.075,-1.42323 -17.3319,-2.77138 -18.3486,-2.99591 -1.6037,-0.35415 -1.7645,0.04 -1.2137,2.97578 0.3492,1.8612 4.1767,13.06071 8.5056,24.8878 l 7.8709,21.5038 -4.9033,18.29435 c -2.6968,10.0619 -7.5393,28.1751 -10.7612,40.25156 -5.5659,20.8629 -5.9124,21.7849 -6.9523,18.5 -2.1072,-6.65596 -20.1973,-75.74492 -20.1863,-77.09445 0.01,-0.74951 1.8555,-6.31275 4.1097,-12.36275 5.4751,-14.69468 12.9881,-36.7244 12.6423,-37.07018 -0.2705,-0.27058 -34.1536,5.0734 -38.397,6.05592 -1.4449,0.33456 -6.7045,7.43891 -16.2904,22.00417 -7.7861,11.83055 -14.2952,21.51009 -14.4647,21.51009 -0.1696,0 1.1903,-7.9875 3.0219,-17.75 1.8315,-9.7625 3.2259,-18.06316 3.0986,-18.44591 -0.1273,-0.38275 -13.8023,9.96725 -30.3888,23 -16.5865,13.03275 -44.7566,35.1551 -62.6001,49.16078 l -32.4428,25.46487 -3.7328,17.03513 c -2.0531,9.36932 -6.3943,29.14881 -9.6473,43.95441 -3.253,14.8056 -5.8032,27.01511 -5.6671,27.13224 0.1361,0.11713 9.9211,-19.08404 21.7446,-42.66928 11.8235,-23.58523 21.7235,-42.88196 22,-42.88161 0.2765,3.4e-4 5.2173,16.53784 10.9794,36.75 8.4552,29.65858 10.9636,37.23755 13,39.27944 3.3061,3.31488 35.5218,25.96993 36.9296,25.96993 0.5976,0 7.1211,-3.375 14.4965,-7.5 7.3755,-4.125 13.7252,-7.5 14.1106,-7.5 0.3854,0 0.3839,0.7875 0,1.75 -0.3871,0.9625 -4.0208,11.3106 -8.075,22.99578 l -7.3712,21.24578 20.5178,10.12105 c 11.2849,5.56658 20.3451,10.29385 20.1339,10.50505 -0.2112,0.2112 -8.4461,-0.51244 -18.2998,-1.60807 -19.5823,-2.17736 -26.4159,-2.47291 -26.4159,-1.14247 0,1.4418 7.0758,5.64169 14.5,8.60666 6.4121,2.56073 24.2562,7.34556 34,9.11695 l 4,0.72719 -5.5,1.41574 c -3.4521,0.88861 -11.5577,1.48102 -21.7692,1.59104 -18.6123,0.20055 -19.9716,1.02132 -9.9265,5.99371 9.5885,4.74635 26.524,6.82514 38.9457,4.78052 2.6125,-0.43002 4.75,-0.46982 4.75,-0.0884 0,1.71593 -19.168,9.12773 -27.3247,10.5658 -2.1036,0.37087 -3.4536,1.01033 -3,1.42102 0.8693,0.78705 17.4048,6.62011 20.8247,7.34611 1.1,0.23351 2.1587,0.47677 2.3526,0.54057 0.1939,0.0638 5.3689,-2.09117 11.5,-4.78881 z m -34.3149,-98.1376 c 0.021,-0.80167 1.3175,-6.78019 2.8816,-13.2856 l 2.8439,-11.82801 -3.4807,-7.17199 c -1.9144,-3.94459 -3.6251,-7.32347 -3.8015,-7.5086 -0.1765,-0.18514 -5.3427,-0.99233 -11.4804,-1.79376 -13.4048,-1.75031 -20.0371,-4.08355 -27.7254,-9.7537 -7.4487,-5.49349 -12.0081,-10.7563 -14.7818,-17.06232 -2.2226,-5.05334 -5.4934,-16.8043 -5.4934,-19.73627 0,-0.85518 -5.629,-5.95999 -12.5088,-11.34401 -6.8798,-5.38402 -12.3923,-9.87725 -12.25,-9.98496 0.1423,-0.10771 12.2119,1.01329 26.8212,2.49111 l 26.5624,2.68695 15.9376,9.04097 c 8.7657,4.97253 16.0515,8.75572 16.1908,8.40709 0.1393,-0.34863 -2.6732,-7.77003 -6.25,-16.49199 -3.5768,-8.72197 -6.5032,-16.32126 -6.5032,-16.88732 0,-0.56606 1.6761,-3.10054 3.7246,-5.63219 7.1145,-8.79223 29.2754,-34.15388 29.2754,-33.50366 0,0.35969 -1.6039,11.86816 -3.5643,25.57439 -1.9603,13.70622 -3.4228,25.53552 -3.25,26.28731 0.1729,0.7518 6.5091,8.61272 14.0806,17.4687 l 13.7664,16.1018 -1.7155,15.95176 c -0.9435,8.77348 -1.841,15.82624 -1.9945,15.67281 -0.1534,-0.15342 -1.4277,-6.95371 -2.8318,-15.11174 -1.4041,-8.15803 -2.9093,-15.4695 -3.3448,-16.2477 -0.838,-1.49743 -16.1855,-13.29182 -17.3,-13.29487 -0.3597,-9.8e-4 0.2467,2.36071 1.3475,5.24821 4.8438,12.70552 11.5524,36.41328 14.3607,50.75 0.4596,2.34665 0.3148,2.29274 -2.3618,-0.8789 l -2.8514,-3.37889 -2.5937,4.37889 c -5.128,8.65779 -21.7466,32.26285 -21.7097,30.83649 z m -7.1148,-55.4304 c 4.5052,-1.58952 12.6794,-7.04835 13.4116,-8.95644 0.253,-0.6595 -3.0952,-3.15789 -7.6453,-5.70481 l -8.0956,-4.53145 -3.8981,4.93147 c -2.1439,2.71231 -4.2705,4.54955 -4.7257,4.08276 -1.661,-1.70329 -5.747,-10.94158 -6.3503,-14.35767 -0.581,-3.28957 -1.1912,-3.77294 -9.7612,-7.73164 l -9.1416,-4.2227 0.5508,8.03581 c 0.6836,9.97299 3.9638,17.20069 10.3629,22.83333 7.5185,6.6181 16.69,8.65649 25.2925,5.62134 z m 136.89614,44.21163 c -4.6952,-6.73135 -10.2147,-14.89673 -12.2656,-18.14529 l -3.7288,-5.90647 -2.3763,2.90647 c -1.7933,2.19336 -2.3852,2.48766 -2.4124,1.19949 -0.06,-2.83086 6.5242,-27.38515 11.2732,-42.04302 2.4501,-7.5625 4.2564,-13.75 4.0138,-13.75 -0.342,0 -7.4844,5.24151 -17.1762,12.60485 -0.1943,0.14764 -1.6137,7.38444 -3.1541,16.08179 -1.5404,8.69735 -2.8858,15.58836 -2.9898,15.31336 -0.104,-0.275 -0.9483,-7.33527 -1.87614,-15.68948 l -1.687,-15.18948 13.78014,-16.30968 c 12.0479,-14.25944 13.7763,-16.74976 13.7497,-19.81052 -0.017,-1.92546 -1.5383,-13.85084 -3.3811,-26.50084 -1.8427,-12.65 -3.2721,-23.09444 -3.1762,-23.20987 0.5983,-0.72075 32.9656,38.29349 32.8511,39.59754 -0.078,0.88678 -3.0999,8.76878 -6.7158,17.51555 -3.6159,8.74677 -6.4454,16.03225 -6.2877,16.18996 0.1577,0.15771 7.676,-3.83845 16.7073,-8.88036 l 16.4205,-9.16711 25.80623,-2.56497 c 14.1934,-1.41074 25.8062,-2.25721 25.8062,-1.88104 0,0.37616 -5.1946,4.66982 -11.5436,9.54147 -8.0353,6.16568 -11.6941,9.61749 -12.039,11.35818 -4.25013,21.45054 -9.27793,29.78341 -23.52703,38.99305 -6.357,4.10876 -14.1044,6.32665 -26.3904,7.55498 -3.85,0.38492 -7.7088,1.06791 -8.575,1.51777 -0.8663,0.44985 -3.0499,4.01761 -4.8525,7.92834 l -3.2774,7.11042 3.0104,12.69805 c 1.6557,6.98392 2.9068,12.80551 2.7803,12.93686 -0.1266,0.13135 -4.0716,-5.26865 -8.7668,-12 z m 34.7104,-45.52122 c 4.9534,-2.55509 10.6203,-8.44115 13.3142,-13.82908 2.6792,-5.35846 4.7884,-16.70702 3.5734,-19.22645 -0.8658,-1.79533 -1.3891,-1.67148 -9.3712,2.21822 -8.1954,3.99357 -8.4891,4.25749 -9.5916,8.61971 -1.2379,4.89799 -4.8501,12.50859 -6.388,13.45905 -0.5292,0.32711 -2.4482,-1.42481 -4.2643,-3.89315 -1.816,-2.46834 -3.6606,-4.50545 -4.099,-4.5269 -1.2895,-0.0631 -15.7029,8.07332 -15.7029,8.8643 0,1.58454 5.8022,6.11438 11,8.58772 4.5524,2.16625 6.5388,2.54459 11.5294,2.19594 3.3446,-0.23367 7.7975,-1.33325 10,-2.46936 z m -118.68754,32.00445 c 2.4965,-3.50606 21.8912,-22.22205 23.0279,-22.22205 2.1388,0 24.9674,22.01472 25.0908,24.19626 0.022,0.38294 -3.6731,-1.33517 -8.2106,-3.81803 -4.5375,-2.48285 -10.1816,-5.41314 -12.5423,-6.51175 l -4.2923,-1.99748 -12.5551,6.60668 c -11.4231,6.01099 -12.3715,6.34878 -10.5184,3.74637 z m -134.0598,70.33672 c 7.8374,-2.02769 22.8631,-4.28292 33.9182,-5.09085 l 9.2003,-0.67238 1.1371,-5.47707 c 0.6253,-3.0124 0.9852,-5.60429 0.7996,-5.75978 -0.1855,-0.15548 -11.3623,-8.96476 -24.8373,-19.57616 -13.475,-10.61141 -24.7664,-19.69752 -25.092,-20.19137 -0.3256,-0.49385 -2.0898,-7.39889 -3.9203,-15.34453 -1.8306,-7.94565 -3.7017,-14.44663 -4.158,-14.44663 -0.4564,0 -0.8297,0.40658 -0.8297,0.90351 0,0.49693 -9.2445,16.30099 -20.5433,35.12013 -11.2988,18.81914 -20.4113,34.59859 -20.25,35.06545 0.5086,1.47205 10.2613,13.79317 10.9656,13.85341 0.3697,0.0316 4.7842,-7.93 9.8099,-17.6925 5.0257,-9.7625 9.5076,-18.12442 9.9597,-18.58205 0.4522,-0.45762 1.9357,2.46738 3.2967,6.5 8.0865,23.96015 12.0913,33.91944 13.4325,33.40476 0.7662,-0.29404 3.9662,-1.20031 7.111,-2.01394 z m 330.56507,-17.65876 c 3.6591,-10.22999 6.6529,-19.11749 6.6529,-19.75 0,-3.29199 2.4385,0.42543 10.561,16.09999 4.9165,9.4875 9.0845,17.8125 9.2623,18.5 0.5887,2.27595 1.8083,1.31862 7.5256,-5.90732 l 5.663,-7.15731 -1.8819,-3.09269 c -7.3498,-12.07869 -39.0836,-64.68616 -39.9363,-66.20543 -1.3171,-2.34672 -1.1511,-2.81921 -5.1841,14.75393 l -3.1306,13.64117 -25.4634,20.24575 c -18.23403,14.49763 -25.32993,20.70372 -24.99293,21.85882 0.2589,0.88719 0.7624,3.26179 1.1191,5.27689 l 0.6484,3.66381 9.6549,0.66227 c 11.84473,0.81248 25.35273,2.87522 34.65493,5.29195 3.85,1.00024 7.2687,1.57102 7.5971,1.26839 0.3284,-0.30262 3.5909,-8.92022 7.25,-19.15022 z M 533.32349,362.82658 c 0.861,-2.3375 3.5196,-9.57477 5.9078,-16.08282 l 4.3424,-11.83282 -11.3399,-33.56913 c -6.2369,-18.46301 -11.1975,-33.71151 -11.0234,-33.88554 0.174,-0.17403 3.2181,0.5659 6.7647,1.6443 3.5465,1.07841 6.7874,1.96417 7.202,1.96837 0.4145,0.004 -5.1357,-11.80486 -12.3338,-26.24236 l -13.0876,-26.25 5.0242,5 c 7.496,7.45997 64.0599,66.92215 63.8364,67.10736 -0.1061,0.088 -7.6179,-0.92228 -16.6929,-2.24496 -9.075,-1.32269 -17.0959,-2.28283 -17.8243,-2.13364 -0.7284,0.14918 8.3939,8.76747 20.2716,19.15175 11.8778,10.38429 21.797,19.20577 22.0427,19.60331 0.2457,0.39753 -6.1766,0.51688 -14.2717,0.26521 l -14.7183,-0.45758 9.5,9.82294 c 5.225,5.40262 9.56,9.97202 9.6333,10.15424 0.265,0.65876 30.3667,-23.83606 30.3667,-24.71051 0,-0.49365 -3.0742,-6.89618 -6.8315,-14.22783 -17.261,-33.68147 -39.3748,-63.08125 -71.3194,-94.81748 -10.5292,-10.46048 -33.7287,-31.01281 -35.0073,-31.01281 -0.2335,0 2.5415,23.9625 6.1666,53.25 l 6.5911,53.25 9.8019,15.33919 9.8019,15.33919 -2.4722,2.66081 c -1.3597,1.46345 -3.2148,3.83348 -4.1223,5.26675 -1.6011,2.52865 -4.6088,15.78153 -4.6088,20.30796 0,2.06251 14.5913,21.52917 16.1673,21.56917 0.367,0.009 1.3717,-1.89557 2.2328,-4.23307 z m 375.79747,-5 c 4.0787,-5.0875 7.6835,-9.7 8.0106,-10.25 0.817,-1.37344 -1.7053,-15.36076 -3.5782,-19.84327 -0.8401,-2.01077 -2.7069,-5.20217 -4.1483,-7.092 -3.0885,-4.04919 -3.7242,-2.38796 8.1908,-21.4053 l 8.3582,-13.34057 5.9957,-50.15943 c 3.2977,-27.58769 6.2515,-51.39693 6.5641,-52.90943 0.3127,-1.5125 0.2536,-2.75 -0.1312,-2.75 -1.3653,0 -21.1531,17.55523 -34.303,30.43268 -31.8482,31.18851 -53.696,60.1286 -71.84933,95.17328 -4.0188,7.75827 -7.3069,14.37352 -7.3069,14.70056 0,0.32703 5.0625,4.51803 11.25,9.31333 6.18753,4.7953 13.06513,10.19197 15.28363,11.9926 l 4.0336,3.27387 9.3957,-10.059 9.3957,-10.059 -14.6793,0.37958 c -8.0736,0.20876 -14.6793,0.32842 -14.6793,0.26591 0,-0.0625 9.9852,-8.84278 22.1894,-19.5117 12.2042,-10.66892 21.5417,-19.52101 20.75,-19.67132 -0.7917,-0.1503 -8.7646,0.78691 -17.7177,2.08271 -8.953,1.29579 -16.153,2.00804 -16,1.58279 0.6798,-1.88901 67.8005,-71.49525 67.7326,-70.24077 -0.025,0.46446 -5.7811,12.20698 -12.7909,26.09448 -7.0099,13.8875 -12.5018,25.24656 -12.2043,25.24236 0.2975,-0.004 3.4426,-0.88996 6.9892,-1.96837 3.5465,-1.0784 6.6444,-1.76458 6.8841,-1.52485 0.2398,0.23972 -4.6391,15.47339 -10.8418,33.85259 l -11.2778,33.41672 5.8381,16.11577 c 3.211,8.86368 6.1514,16.11578 6.5344,16.11578 0.383,0 4.0335,-4.1625 8.1122,-9.25 z"
       id="path1" /></g></svg>
